<mxfile host="app.diagrams.net" modified="2023-04-02T08:56:40.518Z" agent="Mozilla/5.0 (Macintosh; Intel Mac OS X 10_15_7) AppleWebKit/537.36 (KHTML, like Gecko) Chrome/111.0.0.0 Safari/537.36 Edg/111.0.1661.62" etag="nyK96nEnN3XeXCyHNjQU" version="21.1.2" type="device">
  <diagram id="mxVrkepGvQhO2i_dYuH9" name="ページ1">
    <mxGraphModel dx="984" dy="667" grid="1" gridSize="10" guides="1" tooltips="1" connect="1" arrows="1" fold="1" page="1" pageScale="1" pageWidth="1169" pageHeight="827" math="0" shadow="0">
      <root>
        <mxCell id="0" />
        <mxCell id="1" parent="0" />
        <mxCell id="HZb5ogPzErYhzc3wcaVC-30" style="edgeStyle=none;rounded=0;orthogonalLoop=1;jettySize=auto;html=1;" parent="1" source="HZb5ogPzErYhzc3wcaVC-1" target="HZb5ogPzErYhzc3wcaVC-12" edge="1">
          <mxGeometry relative="1" as="geometry" />
        </mxCell>
        <mxCell id="HZb5ogPzErYhzc3wcaVC-31" value="Pull Message" style="edgeLabel;html=1;align=center;verticalAlign=middle;resizable=0;points=[];" parent="HZb5ogPzErYhzc3wcaVC-30" vertex="1" connectable="0">
          <mxGeometry x="-0.0133" y="4" relative="1" as="geometry">
            <mxPoint x="2" y="4" as="offset" />
          </mxGeometry>
        </mxCell>
        <mxCell id="HZb5ogPzErYhzc3wcaVC-1" value="&lt;span style=&quot;background-color: rgb(255, 255, 255);&quot;&gt;Intake Queue&lt;/span&gt;" style="sketch=0;points=[[0,0,0],[0.25,0,0],[0.5,0,0],[0.75,0,0],[1,0,0],[0,1,0],[0.25,1,0],[0.5,1,0],[0.75,1,0],[1,1,0],[0,0.25,0],[0,0.5,0],[0,0.75,0],[1,0.25,0],[1,0.5,0],[1,0.75,0]];outlineConnect=0;fontColor=#232F3E;gradientColor=#FF4F8B;gradientDirection=north;fillColor=#BC1356;strokeColor=#ffffff;dashed=0;verticalLabelPosition=bottom;verticalAlign=top;align=center;html=1;fontSize=12;fontStyle=0;aspect=fixed;shape=mxgraph.aws4.resourceIcon;resIcon=mxgraph.aws4.sqs;" parent="1" vertex="1">
          <mxGeometry x="240" y="120" width="78" height="78" as="geometry" />
        </mxCell>
        <mxCell id="HZb5ogPzErYhzc3wcaVC-28" style="edgeStyle=none;rounded=0;orthogonalLoop=1;jettySize=auto;html=1;" parent="1" source="HZb5ogPzErYhzc3wcaVC-8" target="HZb5ogPzErYhzc3wcaVC-1" edge="1">
          <mxGeometry relative="1" as="geometry" />
        </mxCell>
        <mxCell id="HZb5ogPzErYhzc3wcaVC-29" value="Send Message" style="edgeLabel;html=1;align=center;verticalAlign=middle;resizable=0;points=[];" parent="HZb5ogPzErYhzc3wcaVC-28" vertex="1" connectable="0">
          <mxGeometry x="-0.25" y="-3" relative="1" as="geometry">
            <mxPoint x="4" y="-10" as="offset" />
          </mxGeometry>
        </mxCell>
        <mxCell id="HZb5ogPzErYhzc3wcaVC-8" value="Client" style="rounded=1;whiteSpace=wrap;html=1;fillColor=#f5f5f5;fontColor=#333333;strokeColor=#666666;" parent="1" vertex="1">
          <mxGeometry x="40" y="280" width="120" height="60" as="geometry" />
        </mxCell>
        <mxCell id="HZb5ogPzErYhzc3wcaVC-32" style="edgeStyle=none;rounded=0;orthogonalLoop=1;jettySize=auto;html=1;" parent="1" source="HZb5ogPzErYhzc3wcaVC-12" target="HZb5ogPzErYhzc3wcaVC-17" edge="1">
          <mxGeometry relative="1" as="geometry" />
        </mxCell>
        <mxCell id="HZb5ogPzErYhzc3wcaVC-33" value="Enqueue" style="edgeLabel;html=1;align=center;verticalAlign=middle;resizable=0;points=[];" parent="HZb5ogPzErYhzc3wcaVC-32" vertex="1" connectable="0">
          <mxGeometry x="-0.1143" y="-1" relative="1" as="geometry">
            <mxPoint as="offset" />
          </mxGeometry>
        </mxCell>
        <mxCell id="HZb5ogPzErYhzc3wcaVC-12" value="Intake-Pull&lt;br&gt;daemon" style="rounded=1;whiteSpace=wrap;html=1;fillColor=#dae8fc;strokeColor=#6c8ebf;" parent="1" vertex="1">
          <mxGeometry x="360" y="280" width="120" height="60" as="geometry" />
        </mxCell>
        <mxCell id="HZb5ogPzErYhzc3wcaVC-34" value="Dequeue" style="edgeStyle=none;rounded=0;orthogonalLoop=1;jettySize=auto;html=1;" parent="1" source="HZb5ogPzErYhzc3wcaVC-17" target="HZb5ogPzErYhzc3wcaVC-19" edge="1">
          <mxGeometry relative="1" as="geometry" />
        </mxCell>
        <mxCell id="HZb5ogPzErYhzc3wcaVC-17" value="Queue&lt;br&gt;DB" style="shape=cylinder3;whiteSpace=wrap;html=1;boundedLbl=1;backgroundOutline=1;size=15;" parent="1" vertex="1">
          <mxGeometry x="480" y="440" width="60" height="80" as="geometry" />
        </mxCell>
        <mxCell id="HZb5ogPzErYhzc3wcaVC-27" style="edgeStyle=none;rounded=0;orthogonalLoop=1;jettySize=auto;html=1;" parent="1" source="HZb5ogPzErYhzc3wcaVC-19" target="HZb5ogPzErYhzc3wcaVC-22" edge="1">
          <mxGeometry relative="1" as="geometry" />
        </mxCell>
        <mxCell id="HZb5ogPzErYhzc3wcaVC-37" value="Invoke Function&lt;br&gt;(Event)" style="edgeLabel;html=1;align=center;verticalAlign=middle;resizable=0;points=[];" parent="HZb5ogPzErYhzc3wcaVC-27" vertex="1" connectable="0">
          <mxGeometry x="0.0759" relative="1" as="geometry">
            <mxPoint x="-12" y="8" as="offset" />
          </mxGeometry>
        </mxCell>
        <mxCell id="HZb5ogPzErYhzc3wcaVC-19" value="Intake-Invoke&lt;br&gt;daemon" style="rounded=1;whiteSpace=wrap;html=1;fillColor=#dae8fc;strokeColor=#6c8ebf;" parent="1" vertex="1">
          <mxGeometry x="560" y="280" width="120" height="60" as="geometry" />
        </mxCell>
        <mxCell id="HZb5ogPzErYhzc3wcaVC-39" style="edgeStyle=none;rounded=0;orthogonalLoop=1;jettySize=auto;html=1;" parent="1" source="HZb5ogPzErYhzc3wcaVC-22" target="HZb5ogPzErYhzc3wcaVC-38" edge="1">
          <mxGeometry relative="1" as="geometry" />
        </mxCell>
        <mxCell id="HZb5ogPzErYhzc3wcaVC-45" value="[Success]" style="edgeLabel;html=1;align=center;verticalAlign=middle;resizable=0;points=[];" parent="HZb5ogPzErYhzc3wcaVC-39" vertex="1" connectable="0">
          <mxGeometry x="0.1235" y="-1" relative="1" as="geometry">
            <mxPoint as="offset" />
          </mxGeometry>
        </mxCell>
        <mxCell id="HZb5ogPzErYhzc3wcaVC-41" value="[Failure]" style="edgeStyle=none;rounded=0;orthogonalLoop=1;jettySize=auto;html=1;" parent="1" source="HZb5ogPzErYhzc3wcaVC-22" target="HZb5ogPzErYhzc3wcaVC-40" edge="1">
          <mxGeometry x="0.0084" relative="1" as="geometry">
            <mxPoint as="offset" />
          </mxGeometry>
        </mxCell>
        <mxCell id="HZb5ogPzErYhzc3wcaVC-22" value="&lt;span style=&quot;background-color: rgb(255, 255, 255);&quot;&gt;Job Function&lt;/span&gt;" style="sketch=0;points=[[0,0,0],[0.25,0,0],[0.5,0,0],[0.75,0,0],[1,0,0],[0,1,0],[0.25,1,0],[0.5,1,0],[0.75,1,0],[1,1,0],[0,0.25,0],[0,0.5,0],[0,0.75,0],[1,0.25,0],[1,0.5,0],[1,0.75,0]];outlineConnect=0;fontColor=#232F3E;gradientColor=#F78E04;gradientDirection=north;fillColor=#D05C17;strokeColor=#ffffff;dashed=0;verticalLabelPosition=bottom;verticalAlign=top;align=center;html=1;fontSize=12;fontStyle=0;aspect=fixed;shape=mxgraph.aws4.resourceIcon;resIcon=mxgraph.aws4.lambda;" parent="1" vertex="1">
          <mxGeometry x="760" y="120" width="78" height="78" as="geometry" />
        </mxCell>
        <mxCell id="UKIermQNzph6TnSPJj98-7" style="edgeStyle=none;rounded=0;orthogonalLoop=1;jettySize=auto;html=1;" parent="1" source="HZb5ogPzErYhzc3wcaVC-38" target="UKIermQNzph6TnSPJj98-1" edge="1">
          <mxGeometry relative="1" as="geometry" />
        </mxCell>
        <mxCell id="UKIermQNzph6TnSPJj98-9" value="Pull Message" style="edgeLabel;html=1;align=center;verticalAlign=middle;resizable=0;points=[];" parent="UKIermQNzph6TnSPJj98-7" vertex="1" connectable="0">
          <mxGeometry x="0.2439" y="-1" relative="1" as="geometry">
            <mxPoint as="offset" />
          </mxGeometry>
        </mxCell>
        <mxCell id="HZb5ogPzErYhzc3wcaVC-38" value="&lt;span style=&quot;background-color: rgb(255, 255, 255);&quot;&gt;Outlet-Success&lt;br&gt;Queue&lt;/span&gt;" style="sketch=0;points=[[0,0,0],[0.25,0,0],[0.5,0,0],[0.75,0,0],[1,0,0],[0,1,0],[0.25,1,0],[0.5,1,0],[0.75,1,0],[1,1,0],[0,0.25,0],[0,0.5,0],[0,0.75,0],[1,0.25,0],[1,0.5,0],[1,0.75,0]];outlineConnect=0;fontColor=#232F3E;gradientColor=#FF4F8B;gradientDirection=north;fillColor=#BC1356;strokeColor=#ffffff;dashed=0;verticalLabelPosition=bottom;verticalAlign=top;align=center;html=1;fontSize=12;fontStyle=0;aspect=fixed;shape=mxgraph.aws4.resourceIcon;resIcon=mxgraph.aws4.sqs;" parent="1" vertex="1">
          <mxGeometry x="760" y="360" width="78" height="78" as="geometry" />
        </mxCell>
        <mxCell id="UKIermQNzph6TnSPJj98-8" value="Pull Message" style="edgeStyle=none;rounded=0;orthogonalLoop=1;jettySize=auto;html=1;" parent="1" source="HZb5ogPzErYhzc3wcaVC-40" target="UKIermQNzph6TnSPJj98-2" edge="1">
          <mxGeometry relative="1" as="geometry" />
        </mxCell>
        <mxCell id="HZb5ogPzErYhzc3wcaVC-40" value="&lt;span style=&quot;background-color: rgb(255, 255, 255);&quot;&gt;Outlet-Failure&lt;br&gt;Queue&lt;/span&gt;" style="sketch=0;points=[[0,0,0],[0.25,0,0],[0.5,0,0],[0.75,0,0],[1,0,0],[0,1,0],[0.25,1,0],[0.5,1,0],[0.75,1,0],[1,1,0],[0,0.25,0],[0,0.5,0],[0,0.75,0],[1,0.25,0],[1,0.5,0],[1,0.75,0]];outlineConnect=0;fontColor=#232F3E;gradientColor=#FF4F8B;gradientDirection=north;fillColor=#BC1356;strokeColor=#ffffff;dashed=0;verticalLabelPosition=bottom;verticalAlign=top;align=center;html=1;fontSize=12;fontStyle=0;aspect=fixed;shape=mxgraph.aws4.resourceIcon;resIcon=mxgraph.aws4.sqs;" parent="1" vertex="1">
          <mxGeometry x="920" y="362" width="78" height="78" as="geometry" />
        </mxCell>
        <mxCell id="UKIermQNzph6TnSPJj98-5" style="edgeStyle=none;rounded=0;orthogonalLoop=1;jettySize=auto;html=1;" parent="1" source="UKIermQNzph6TnSPJj98-1" target="HZb5ogPzErYhzc3wcaVC-17" edge="1">
          <mxGeometry relative="1" as="geometry" />
        </mxCell>
        <mxCell id="UKIermQNzph6TnSPJj98-10" value="Delete Message" style="edgeLabel;html=1;align=center;verticalAlign=middle;resizable=0;points=[];" parent="UKIermQNzph6TnSPJj98-5" vertex="1" connectable="0">
          <mxGeometry x="-0.0491" y="-3" relative="1" as="geometry">
            <mxPoint as="offset" />
          </mxGeometry>
        </mxCell>
        <mxCell id="UKIermQNzph6TnSPJj98-1" value="Outlet-Success&lt;br&gt;daemon" style="rounded=1;whiteSpace=wrap;html=1;fillColor=#dae8fc;strokeColor=#6c8ebf;" parent="1" vertex="1">
          <mxGeometry x="739" y="520" width="120" height="60" as="geometry" />
        </mxCell>
        <mxCell id="UKIermQNzph6TnSPJj98-6" style="edgeStyle=none;rounded=0;orthogonalLoop=1;jettySize=auto;html=1;" parent="1" source="UKIermQNzph6TnSPJj98-2" target="HZb5ogPzErYhzc3wcaVC-17" edge="1">
          <mxGeometry relative="1" as="geometry" />
        </mxCell>
        <mxCell id="UKIermQNzph6TnSPJj98-11" value="Update to [Retry]" style="edgeLabel;html=1;align=center;verticalAlign=middle;resizable=0;points=[];" parent="UKIermQNzph6TnSPJj98-6" vertex="1" connectable="0">
          <mxGeometry x="-0.3417" relative="1" as="geometry">
            <mxPoint as="offset" />
          </mxGeometry>
        </mxCell>
        <mxCell id="UKIermQNzph6TnSPJj98-2" value="Outlet-Failure&lt;br&gt;daemon" style="rounded=1;whiteSpace=wrap;html=1;fillColor=#dae8fc;strokeColor=#6c8ebf;" parent="1" vertex="1">
          <mxGeometry x="899" y="700" width="120" height="60" as="geometry" />
        </mxCell>
      </root>
    </mxGraphModel>
  </diagram>
</mxfile>
